<svg width="48" height="48" fill="none" xmlns="http://www.w3.org/2000/svg"><path fill-rule="evenodd" clip-rule="evenodd" d="M48 24c0 13.255-10.745 24-24 24S0 37.255 0 24 10.745 0 24 0s24 10.745 24 24zM24 45c11.598 0 21-9.402 21-21S35.598 3 24 3 3 12.402 3 24s9.402 21 21 21z" fill="#108571"/><path d="M23.217 10.86c1.594-1.038 3.546-1.56 5.934-1.289 2.667.303 4.248 1.948 5.113 3.392a9.333 9.333 0 011.02 2.457l2.925 3.983a1.5 1.5 0 01-1.603 2.335l-.006-.002-2.093-.402c-.561-.069-1.08-.093-1.476-.053a1.64 1.64 0 00-.36.067c-.16.211-.258.49-.255 1.11.003.572.086 1.236.2 2.164.045.357.094.753.145 1.198.128 1.11.475 2.504.871 4.101.095.38.192.772.29 1.174.485 1.992.977 4.22.977 6.135 0 2.177-.068 5.05-1.24 7.85l-2.767-1.16c.92-2.198 1.007-4.536 1.007-6.69 0-1.506-.4-3.402-.892-5.426a215.64 215.64 0 00-.264-1.066l-1.083-5.573c-.125-1.005-.24-1.927-.244-2.691-.006-1.114.208-2.202 1.052-3.17.655-.75 1.625-.944 2.263-1.008a7.68 7.68 0 01.92-.032l-.97-1.32-.408-1.143a6.334 6.334 0 00-.582-1.296c-.562-.938-1.435-1.79-2.878-1.953-1.722-.196-2.97.179-3.96.822-1.027.67-1.87 1.692-2.638 2.939-.695 1.129-1.015 2.237-1.4 3.665l-.04.154c-.373 1.383-.81 3.007-1.745 4.896-1.031 2.085-3.355 4.492-5.245 6.266l-4.666 3.99a403.78 403.78 0 01-2.696 2.122L4.577 35.04c1.128-.88 2.043-1.602 2.676-2.105l2.03-1.65a65.07 65.07 0 002.449-2.178c1.917-1.8 3.849-3.872 4.61-5.41.801-1.62 1.173-3 1.548-4.39l.029-.11c.382-1.417.792-2.915 1.742-4.457.876-1.424 2-2.867 3.556-3.88z" fill="#108571"/><path d="M21.24 34.608a1.5 1.5 0 011.84-1.056l.982.368a8.524 8.524 0 011.96 1.228c1.456 1.225 2.807 3.296 2.407 6.423-.326 2.555-.846 4.34-2.012 5.847l-2.373-1.836c.68-.879 1.108-2.03 1.41-4.391.245-1.927-.53-3.046-1.364-3.748a5.533 5.533 0 00-1.265-.79l-.538-.208a1.5 1.5 0 01-1.047-1.837z" fill="#108571"/><path fill-rule="evenodd" clip-rule="evenodd" d="M28.5 18a1.5 1.5 0 100-3 1.5 1.5 0 000 3z" fill="#108571"/></svg>