<?xml version="1.0" encoding="UTF-8" standalone="no"?>
<svg width="64px" height="64px" viewBox="0 0 64 64" version="1.1" xmlns="http://www.w3.org/2000/svg" xmlns:xlink="http://www.w3.org/1999/xlink" xmlns:sketch="http://www.bohemiancoding.com/sketch/ns">
    <!-- Generator: Sketch 3.3.3 (12072) - http://www.bohemiancoding.com/sketch -->
    <title>logo-white</title>
    <desc>Created with Sketch.</desc>
    <defs></defs>
    <g id="Page-1" stroke="none" stroke-width="1" fill="none" fill-rule="evenodd" sketch:type="MSPage">
        <g id="logo-white" sketch:type="MSArtboardGroup" fill="#FFFFFF">
            <path d="M34.4858138,63.9048773 C35.4600727,63.830024 36.4221159,63.7115423 37.3699929,63.5513827 L37.3699929,63.5513827 C37.3955634,63.5203388 37.4238707,63.4909142 37.4550211,63.4632579 C41.20167,60.1368601 42.2175107,56.3650638 42.2175107,49.8224746 C42.2175107,48.2720267 41.9090078,46.3489397 41.2823718,43.6651073 C41.1525979,43.1092963 41.0143361,42.5398153 40.8251204,41.776269 C39.7827167,37.5698336 39.5855944,36.699769 39.4046745,35.1315349 C39.3947944,35.0461246 39.3947944,35.0461246 39.3848971,34.9614361 C39.3381105,34.5620609 39.1220638,32.8221541 39.0733179,32.3888822 C38.9699654,31.4702477 38.9197409,30.7941904 38.9199542,30.1681572 C38.9205301,28.4781465 39.321398,27.1622077 40.3196552,26.01879 C41.2772645,24.921931 44.5596112,24.6319541 44.5596112,24.6319541 L43.25788,22.8961653 C43.0962339,22.6761374 42.813184,21.6699143 42.6899036,21.2993661 C42.4793338,20.6664487 42.1897421,20.0339006 41.8165424,19.4557431 C40.9367175,18.0927265 39.7551001,17.2538047 38.1253629,17.0688049 C34.2191138,16.6253865 31.7124793,18.2563603 29.3702403,22.0582639 C29.1791749,22.3683996 29.0057104,22.6839982 28.8460925,23.0100892 C28.3625147,23.9980134 28.0503631,24.9349461 27.5710466,26.7046026 C26.614409,30.2365481 26.2220346,31.4427882 25.1409423,33.6271301 C24.5096608,34.9026315 23.5087428,36.2998681 22.187007,37.8249007 C21.3623202,38.7764329 20.4219756,39.7660117 19.3869777,40.782961 C18.0518122,42.0948434 16.6267206,43.3874715 15.2021221,44.6079356 C14.7037116,45.0349276 13.0793528,46.3668051 12.8701522,46.533955 C12.5225771,46.8116654 12.1180548,47.1335605 11.6606387,47.4959647 C10.3548704,48.5305061 8.88624914,49.6829098 7.28717325,50.9237893 C7.04357891,51.1128179 6.80609421,51.2827164 6.57545171,51.4344603 C11.7264376,58.1628931 19.4879588,62.7870199 28.3469431,63.7937685 C32.5297519,60.9407023 33.0636379,59.7241496 33.6570644,55.0794551 C33.9558698,52.7407327 33.1802338,51.1306476 31.6337793,49.9378705 C31.1459796,49.5616316 29.5573765,48.8164797 29.4688456,48.7924983 C28.4026989,48.5036989 27.7725344,47.4052981 28.0613338,46.3391514 C28.3501332,45.2730048 29.448534,44.6428403 30.5146807,44.9316397 C31.4623958,45.1883582 32.7640624,45.7580807 34.0767338,46.7705414 C36.6878988,48.7845276 38.1152817,51.7475252 37.6248113,55.5863918 C37.1147494,59.5785995 36.4406527,61.7979795 34.4858138,63.9048773 L34.4858138,63.9048773 L34.4858138,63.9048773 Z M43.966744,61.6873717 C55.7116787,56.9485609 64,45.442201 64,32 C64,14.326888 49.673112,0 32,0 C14.326888,0 0,14.326888 0,32 C0,37.8893053 1.59094051,43.4070265 4.3664889,48.146831 C4.51355144,48.0197572 4.66961664,47.8919292 4.83491699,47.7636565 C6.422969,46.5313315 7.88106322,45.3871882 9.17663416,44.360726 C9.62968675,44.001779 10.0299277,43.6832908 10.3732898,43.4089465 C10.5786515,43.2448638 12.1234583,41.9782719 12.5997191,41.5702558 C13.9598958,40.4049823 15.3195794,39.1716824 16.5835375,37.9297658 C17.5469081,36.9831947 18.4151988,36.0694424 19.1642908,35.2051322 C20.2826575,33.914749 21.1006194,32.7729109 21.5559901,31.8528365 C22.4840947,29.9776055 22.820672,28.9428972 23.7101601,25.6588704 C24.2515338,23.6600966 24.628981,22.5271766 25.253406,21.2515093 C25.4692274,20.8105973 25.7049715,20.3816884 25.9646494,19.9601812 C29.0435894,14.9624706 32.9043045,12.4504468 38.576526,13.0943298 C41.4989131,13.426065 43.6890801,14.9810343 45.177213,17.2864361 C46.0180592,18.5890673 46.7418825,20.8928315 46.7418825,20.8928315 L50.6117883,26.1500125 C51.733249,27.6765117 50.3016864,29.7617822 48.4741594,29.2637669 C48.4128099,29.2470487 48.2834818,29.2137676 48.0984235,29.1694355 C47.7827026,29.0938021 47.4348925,29.0178304 47.0676925,28.9469949 C46.3832447,28.8149601 45.7159337,28.7171657 45.1056398,28.6676928 C44.4698657,28.6161544 43.9326163,28.6210186 43.5426439,28.681328 C43.3845194,28.705782 43.2051063,28.7641858 43.2051063,28.7641858 C43.2051063,28.7641858 42.7782231,29.5493031 43.3577284,34.496021 C43.3680211,34.5840919 43.3680211,34.5840919 43.378319,34.673114 C43.5302023,35.9896562 43.722962,36.8404649 44.7076813,40.8141252 C44.9008677,41.5936947 45.0429688,42.1789887 45.1776054,42.7556266 C45.8687973,45.7159468 46.2175107,47.8896903 46.2175107,49.8224746 C46.2175107,54.7542632 45.674028,58.495884 43.9667416,61.6873727 L43.966744,61.6873717 L43.966744,61.6873717 Z M38,24 C39.1045695,24 40,23.1045695 40,22 C40,20.8954305 39.1045695,20 38,20 C36.8954305,20 36,20.8954305 36,22 C36,23.1045695 36.8954305,24 38,24 L38,24 Z" id="Mask" sketch:type="MSShapeGroup"></path>
        </g>
    </g>
</svg>